<?xml version="1.0" encoding="UTF-8" standalone="no"?>
<!DOCTYPE svg PUBLIC "-//W3C//DTD SVG 1.1//EN" "http://www.w3.org/Graphics/SVG/1.1/DTD/svg11.dtd">
<svg width="100%" height="100%" viewBox="0 0 1280 800" version="1.1" xmlns="http://www.w3.org/2000/svg" xmlns:xlink="http://www.w3.org/1999/xlink" xml:space="preserve" xmlns:serif="http://www.serif.com/" style="fill-rule:evenodd;clip-rule:evenodd;stroke-linejoin:round;stroke-miterlimit:2;">
    <rect x="0" y="0" width="1280" height="800" style="fill:white;"/>
    <g transform="matrix(3.40602,0,0,3.40602,-1464.03,-1094.07)">
        <path d="M553.64,448.29C555.008,449.154 556.16,450.306 557.24,452.106C560.336,457.434 561.704,458.586 563.144,454.41C564.152,451.17 564.656,447.714 564.944,444.402C565.304,439.074 565.16,433.386 564.512,428.418C564.296,426.906 564.08,425.538 563.792,424.17C562.568,418.482 561.056,420.066 555.8,422.082C555.008,422.37 554.216,422.658 553.424,422.946C547.376,425.034 542.984,425.682 538.232,425.106C535.28,424.746 532.617,423.954 529.593,422.658C522.033,419.346 521.457,419.274 516.561,425.538C511.089,432.666 504.753,441.234 502.377,448.866C499.209,458.802 503.961,467.226 509.865,472.626L491.577,472.626C487.977,467.874 486.897,463.698 486.249,457.506C486.105,455.346 486.105,453.258 486.249,451.602C487.617,439.866 495.609,428.202 502.953,418.482C506.481,413.802 510.081,408.546 515.481,405.882C519.729,403.722 524.049,403.578 528.657,405.666C533.984,408.186 537.368,409.77 540.176,410.13C542.624,410.418 545.576,409.77 550.472,407.898C556.592,405.594 561.92,404.298 566.888,405.81C572.72,407.538 576.68,412.074 578.624,421.074C580.064,427.986 580.64,437.346 579.992,445.482C579.416,452.97 577.76,462.042 572.864,467.874C570.128,471.042 566.96,472.698 563.432,473.058C556.592,473.778 550.904,469.17 546.944,463.842C548.96,461.394 550.616,458.658 551.768,455.778C552.776,453.33 553.424,450.81 553.64,448.29ZM653.576,472.554L603.248,472.554C597.344,472.554 592.736,470.61 589.496,466.65C586.184,462.69 585.248,457.794 586.544,451.89L591.944,427.986C593.24,422.082 596.408,417.186 601.448,413.226C606.488,409.338 611.96,407.322 617.792,407.322L668.192,407.322L664.808,422.586L614.408,422.586C610.376,422.586 607.928,424.386 607.136,427.986L601.808,451.89C600.944,455.49 602.6,457.362 606.632,457.362L641.768,457.362L644,447.426L623.336,447.426L626.792,432.306L662.648,432.306L653.576,472.554ZM742.207,452.394C743.503,446.922 742.855,442.242 740.479,438.426C737.815,434.322 733.783,432.306 728.384,432.306L687.487,432.306C685.327,432.306 684.68,430.722 685.327,427.482C686.12,424.242 687.56,422.586 689.647,422.586L745.879,422.586L749.335,407.322L693.031,407.322C687.632,407.322 682.736,409.338 678.415,413.298C674.024,417.258 671.288,422.01 670.064,427.482C668.767,433.026 669.415,437.634 672.007,441.378C674.6,445.41 678.632,447.426 684.031,447.426L725,447.426C727.088,447.426 727.807,449.082 727.016,452.394C726.296,455.706 724.855,457.362 722.767,457.362L666.463,457.362L663.08,472.554L719.384,472.554C724.784,472.554 729.68,470.538 734.143,466.434C738.319,462.546 740.983,457.866 742.207,452.394ZM542.624,450.594L520.593,439.218L515.625,461.394L542.624,450.594Z" style="fill:url(#_Linear1);fill-rule:nonzero;"/>
    </g>
    <defs>
        <linearGradient id="_Linear1" x1="0" y1="0" x2="1" y2="0" gradientUnits="userSpaceOnUse" gradientTransform="matrix(257.93,0,0,-257.93,488.77,438.656)"><stop offset="0" style="stop-color:rgb(253,204,5);stop-opacity:1"/><stop offset="0.38" style="stop-color:rgb(229,7,126);stop-opacity:1"/><stop offset="0.68" style="stop-color:rgb(0,157,221);stop-opacity:1"/><stop offset="1" style="stop-color:rgb(7,4,8);stop-opacity:1"/></linearGradient>
    </defs>
</svg>
